{"title":"Yogi.Bear.2010.TS.H264.Feel-Free","uid":6104161,"size":939405837,"categoryP":"video","categoryS":"movies","magnet":"?xt=urn:btih:27a687805555259dd35f6f9d27e6bd8351ddfda6&amp;dn=Yogi.Bear.2010.TS.H264.Feel-Free&amp;tr=udp%3A%2F%2Ftracker.openbittorrent.com%3A80&amp;tr=udp%3A%2F%2Fopen.demonii.com%3A1337&amp;tr=udp%3A%2F%2Ftracker.coppersurfer.tk%3A6969&amp;tr=udp%3A%2F%2Fexodus.desync.com%3A6969","seeders":1,"leechers":0,"uploader":"SaM","files":8,"time":1295097162,"description":"Genre:Animation | Adventure | Comedy\nLanguage:English\nIMDb:http://www.imdb.com/title/tt1302067/\nSource:IMAGINE Thx.\nSubtitles:Romana\n\n\n\nFormat : MPEG-4\nFormat profile : Base Media\nCodec ID : isom\nFile size : 894 MiB\nDuration : 1h 12mn\nOverall bit rate : 1 731 Kbps\n\n\nVideo\nCodec ID : avc1\nCodec ID/Info : Advanced Video Coding\nDuration : 1h 12mn\nBit rate mode : Variable\nBit rate : 1 563 Kbps\nWidth : 720 pixels\nHeight : 480 pixels\nDisplay aspect ratio : 3:2\nFrame rate mode : Constant\nFrame rate : 29.970 fps\nOriginal frame rate : 29.000 fps\nStandard : NTSC\nColor space : YUV\nChroma subsampling : 4:2:0\nBit depth : 8 bits\nScan type : Progressive\nBits/(Pixel*Frame) : 0.151\nStream size : 808 MiB (90%)\n\n\nAudio\nID : 1\nFormat : AAC\nFormat/Info : Advanced Audio Codec\nFormat version : Version 4\nFormat profile : LC\nCodec ID : 40\nDuration : 1h 12mn\nBit rate mode : Constant\nBit rate : 160 Kbps\nChannel(s) : 2 channels\nChannel positions : Front: L R\nSampling rate : 48.0 KHz\nStream size : 82.7 MiB (9%)\nLanguage : English\n\n\n\nPlot:\nA documentary filmmaker travels to Jellystone Park to shoot a project and soon crosses paths with Yogi Bear, his sidekick Boo-Boo, and Ranger Smith\n\nTRAILER:http://www.imdb.com/video/imdb/vi2698381593/\n\nScreens:-\n &lt;a href=&quot;\nhttp://shareimage.org/images/rzoc6m1ux9bqk2ynj.png&quot; rel=&quot;nofollow&quot; target=&quot;_NEW&quot;&gt;\nhttp://shareimage.org/images/rzoc6m1ux9bqk2ynj.png&lt;/a&gt;\n &lt;a href=&quot;\nhttp://shareimage.org/images/6x3tjmq3igacir2bnbyp.png&quot; rel=&quot;nofollow&quot; target=&quot;_NEW&quot;&gt;\nhttp://shareimage.org/images/6x3tjmq3igacir2bnbyp.png&lt;/a&gt;\n &lt;a href=&quot;\nhttp://shareimage.org/images/6f48cpd273rkpujflpdq.png&quot; rel=&quot;nofollow&quot; target=&quot;_NEW&quot;&gt;\nhttp://shareimage.org/images/6f48cpd273rkpujflpdq.png&lt;/a&gt;\n\n\nGreets:\n\nINK,CRYS,IMAGINE,LKRG,FXG,3Li,FLAWL3SS,TA,ViSiON,LU,TheFalcon007,PrisM,Noir,WBZ,LAP,Rx,Kingdom,SAFCuk009+Fabreezy,HDLiTE,TWiZTED,ExtraTorrentRG.ELEKTRI4KA,MAGNAT,CM8\nAnd to all the other p2p grps past and present\n\n\n\n\nMake sure its a real Feel-Free release","torrent":{"xt":"urn:btih:27a687805555259dd35f6f9d27e6bd8351ddfda6","amp;dn":"Yogi.Bear.2010.TS.H264.Feel-Free","amp;tr":["udp%3A%2F%2Ftracker.openbittorrent.com%3A80","udp%3A%2F%2Fopen.demonii.com%3A1337","udp%3A%2F%2Ftracker.coppersurfer.tk%3A6969","udp%3A%2F%2Fexodus.desync.com%3A6969"],"infoHash":"27a687805555259dd35f6f9d27e6bd8351ddfda6","infoHashBuffer":{"type":"Buffer","data":[39,166,135,128,85,85,37,157,211,95,111,157,39,230,189,131,81,221,253,166]},"announce":[],"urlList":[]}}